<?xml version="1.0" encoding="utf-8"?>
<!-- Generator: Adobe Illustrator 23.0.3, SVG Export Plug-In . SVG Version: 6.00 Build 0)  -->
<svg version="1.1" id="Livello_1" xmlns="http://www.w3.org/2000/svg" xmlns:xlink="http://www.w3.org/1999/xlink" x="0px" y="0px"
	 viewBox="0 0 100 100" style="enable-background:new 0 0 100 100;" xml:space="preserve">
<style type="text/css">
	.st0{fill:#61A3C9;}
	.st1{fill:#4D484A;}
</style>
<g>
	<path class="st0" d="M82.3,91.6c-3.4,0-5-0.9-7-1.9c-2.2-1.2-4.8-2.5-9.6-2.5c-4.9,0-7.4,1.3-9.6,2.5c-2,1.1-3.5,1.9-7,1.9
		s-5-0.9-7-1.9c-2.2-1.2-4.8-2.5-9.6-2.5s-7.4,1.3-9.6,2.5c-2,1.1-3.5,1.9-7,1.9s-4.6-0.9-6.6-1.9c-2.2-1.2-4.4-2.5-9.3-2.5v5.5
		c4.1,0,4.6,0.9,6.6,1.9c2.2,1.2,4.6,2.5,9.5,2.5c4.9,0,7.3-1.3,9.5-2.5c2-1.1,3.5-1.9,6.9-1.9s5,0.9,6.9,1.9
		c2.2,1.2,4.7,2.5,9.6,2.5c4.9,0,7.4-1.3,9.6-2.5c2-1.1,3.5-1.9,7-1.9c3.4,0,5,0.9,7,1.9c2.2,1.2,4.8,2.5,9.6,2.5
		c4.9,0,8-1.3,10.2-2.5c2-1.1,3.4-1.9,7.5-1.9v-5.5c-5.2,0-8,1.3-10.2,2.5C87.8,90.7,85.7,91.6,82.3,91.6z"/>
	<path class="st0" d="M15.9,86c4.9,0,7.4-1.3,9.6-2.5c2-1.1,3.5-1.9,7-1.9s5,0.9,7,1.9c2.2,1.2,4.8,2.5,9.6,2.5
		c4.9,0,7.4-1.3,9.6-2.5c2-1.1,3.5-1.9,7-1.9c3.4,0,5,0.9,7,1.9c2.2,1.2,4.8,2.5,9.6,2.5s8-1.3,10.2-2.5c2-1.1,3.4-1.9,7.5-1.9v-5.4
		c-1.1,0-2,0-2.4,0c-3.3,0-5.6,1.1-7.6,2.2c-1.7,0.9-3.1,1.5-5.8,1.5c-0.4,0-0.8,0-1.3,0c-0.4,0-0.9,0-1.3,0c-2.5,0-4-0.5-5.8-1.5
		c-2-1.1-4.3-2.2-8.3-2.2c-0.4,0-0.9,0-1.3,0c-0.4,0-0.9,0-1.3,0c-4,0-6.3,1.1-8.3,2.2c-1.7,0.9-3.1,1.5-5.8,1.5c-0.4,0-0.8,0-1.3,0
		c-0.6,0-0.9,0-1.3,0c-2.5,0-4-0.5-5.8-1.5c-2-1.1-4.3-2.2-8.3-2.2c-0.4,0-0.8,0-1.3,0c-0.4,0-0.9,0-1.3,0c-4,0-6.3,1.1-8.3,2.2
		C21.4,79.3,20,80,17.4,80c-0.4,0-0.8,0-1.3,0c-0.4,0-0.9,0-1.3,0c-2.5,0-4-0.5-5.8-1.5c-2-1.1-4.3-2.2-8.3-2.2c-0.4,0,0.5,0-0.6,0
		v5.4c4.1,0,4.6,0.9,6.6,1.9C8.8,84.7,11,86,15.9,86z"/>
	<path class="st1" d="M24.6,33.4v4.3v35.6c2.2-1.1,3.9-1.9,7.8-1.9c0.4,0,0.9,0,1.3,0c0.6,0,0.9,0,1.3,0c4,0,6.6,1.2,8.6,2.3
		c0.5,0.3,1.9,0.3,1.9,0.5V55.3h10.8v19c1.1-0.3,0.9-0.4,1.6-0.7c2-1.1,3.9-2.3,7.9-2.3c0.4,0,0.9,0,1.3,0c0.4,0,0.9,0,1.3,0
		c2.3,0,4.7,0.1,6.5,0.6V37.7v-4.3l5,5.5l2.6-2.8L49.2,2.9L16,36.1l3,2.8L24.6,33.4z"/>
</g>
</svg>
