<?xml version="1.0" encoding="utf-8"?>
<!-- Generator: Adobe Illustrator 23.0.3, SVG Export Plug-In . SVG Version: 6.00 Build 0)  -->
<svg version="1.1" id="Livello_1" xmlns="http://www.w3.org/2000/svg" xmlns:xlink="http://www.w3.org/1999/xlink" x="0px" y="0px"
	 viewBox="0 0 100 100" style="enable-background:new 0 0 100 100;" xml:space="preserve">
<style type="text/css">
	.st0{fill:#6C5947;}
	.st1{fill:#836C57;}
	.st2{fill:#8D7A59;}
</style>
<g>
	<path class="st0" d="M98.4,97.6l-10.1-5L61.9,64.9V49.7l-24-15.1l-6.3-18.9L5.1,0.4C3.3-0.7,0.8,0.6,0.8,2.7V100h97
		C99.2,100,99.7,98.2,98.4,97.6z"/>
	<polygon class="st1" points="51.7,26.5 56.7,20.1 46.6,15 40.3,15 45.4,23.9 	"/>
	<path class="st2" d="M62.9,23.4c0,0,5.1,6.3,7.3,8c2.2,1.8,21.1-1.9,21.1-1.9l1.6-7.4l-27.6-9.8L62.9,23.4z"/>
	<path class="st1" d="M71.8,48.4v10.9c0,0,9,11,10.2,11c1.3,0,6.3,0,6.3,0l6.3-7.8l-8.8-14.1H71.8z"/>
	<polygon class="st2" points="60.3,41.5 66.6,42.8 68,38.7 63.1,36.6 60.3,38.7 	"/>
</g>
</svg>
