<?xml version="1.0" encoding="utf-8"?>
<!-- Generator: Adobe Illustrator 23.0.3, SVG Export Plug-In . SVG Version: 6.00 Build 0)  -->
<svg version="1.1" id="Livello_1" xmlns="http://www.w3.org/2000/svg" xmlns:xlink="http://www.w3.org/1999/xlink" x="0px" y="0px"
	 viewBox="0 0 100 100" style="enable-background:new 0 0 100 100;" xml:space="preserve">
<style type="text/css">
	.st0{fill:#9bb5df;}
	.st1{fill:#4D4D4D;}
</style>
<g>
	<path class="st0" d="M35.7,61.8v3.7l-1.9-2.2c-0.6-0.4-0.9-0.4-1.4-0.1c-0.5,0.5-0.7,1.2-0.3,1.7l3.6,3.8v5.5l-4.4-2.8l-1.2-5.2
		c-0.1-0.5-0.5-0.9-1-0.9c-0.7,0-1.3,0.8-1.1,1.5l0.8,3L25.6,68c-0.6-0.3-1.2-0.1-1.5,0.3c-0.4,0.6-0.1,1.4,0.4,1.6l3.2,1.8
		l-3.1,0.8c-0.6,0.1-1,0.8-0.9,1.4c0.2,0.6,0.9,1,1.5,0.8l5.3-1.4l4.8,2.8L30.5,79c-1.9-0.4-3.7-1.2-5.6-1.5c-0.5,0-1,0.5-1.1,1
		c-0.1,0.5,0.3,1.1,0.9,1.2l3.1,0.8l-3.2,1.8c-0.5,0.3-0.7,1-0.4,1.6c0.3,0.5,1,0.7,1.6,0.4l3.2-1.8l-0.8,3
		c-0.2,0.6,0.2,1.2,0.8,1.4c0.6,0.2,1.2-0.2,1.4-0.8l1.1-5.2l4.4-2.8v5.5l-3.5,3.8c-0.5,0.4-0.3,1.2,0.1,1.7c0.4,0.4,1,0.4,1.4-0.1
		l2-2.2v3.7c0,0.6,0.6,1.2,1.2,1.2c0.6,0,1.2-0.6,1.2-1.2v-3.7l2.6,2.2c0.4,0.5,1.4,0.5,1.8,0.1c0.4-0.4,0.2-1.2-0.3-1.7l-4.1-3.8
		v-5.5l5.1,2.8l1.6,5.2c0.2,0.6,0.9,1,1.5,0.8c0.6-0.2,1-0.8,0.9-1.4l-0.8-3l3.2,1.8c0.5,0.3,1.3,0.1,1.6-0.4s0.1-1.3-0.4-1.6
		l-3.2-1.8l3.1-0.8c0.5-0.1,0.9-0.7,0.8-1.2c-0.1-0.5-0.6-1-1.1-1c-1.8,0.4-3.7,1-5.6,1.4l-4.8-2.8l4.8-2.8l5.3,1.4
		c0.6,0.2,1.3-0.2,1.5-0.8c0.2-0.6-0.3-1.3-0.9-1.4l-3.1-0.8l3.2-1.8c0.6-0.5,0.7-1,0.4-1.6c-0.2-0.5-0.9-0.6-1.5-0.3l-3.2,1.8
		l0.8-3c0.2-0.7-0.4-1.5-1.2-1.4c-0.5,0-0.9,0.4-1,0.9l-1.7,5.2l-5.1,2.8v-5.5l4.2-3.8c0.5-0.4,0.6-1.2,0.2-1.7
		c-0.4-0.4-1.5-0.4-1.9,0.1l-2.5,2.2v-3.7c0-1.2-2.3-0.3-2.3-0.3C35.8,61.5,35.7,61.7,35.7,61.8z"/>
	<path class="st1" d="M84,27.9C81.7,14.5,70.4,6.1,56.3,6.1c-0.1,0-0.2,0-0.3,0c-8.5,0.1-16,3.9-21.2,9.8c-1.1-0.2-2.2-0.3-3.4-0.3
		c-8.8,0-16.1,7.4-18.3,15.5C5.8,31.5,0,40.3,0,47.7c0,7.6,6.2,13.6,13.7,13.6h22.5h0.3c0,0,0.6,0,1.6,0c4.6,0,17.9,0,17.9,0h28
		c7.6,0,16-7.9,16-15.5C100,36.9,91.4,28.1,84,27.9z"/>
	<path class="st0" d="M75.8,84.1l-1.6-0.4l1.6-0.9c0.3-0.3,0.4-0.5,0.2-0.8c-0.1-0.3-0.5-0.3-0.8-0.2l-1.6,0.9l0.4-1.6
		c0.1-0.4-0.2-0.8-0.6-0.7c-0.2,0-0.5,0.2-0.5,0.4l-0.7,2.7l-2.5,1.4v-2.8l2-2c0.2-0.2,0.3-0.6,0-0.8c-0.2-0.2-0.7-0.2-0.9,0
		l-1.2,1.1v-1.9c0-0.3-0.3-0.6-0.6-0.6c-0.3,0-0.6,0.3-0.6,0.6v1.9l-1.1-1.1c-0.3-0.2-0.5-0.2-0.8,0c-0.2,0.2-0.2,0.6,0,0.8l2,2v2.8
		l-2.4-1.4l-0.7-2.7c-0.1-0.2-0.3-0.4-0.6-0.4c-0.4,0-0.7,0.4-0.6,0.7l0.4,1.6L63,81.7c-0.3-0.1-0.6-0.1-0.8,0.2
		c-0.2,0.3,0,0.7,0.2,0.8l1.6,0.9l-1.6,0.4c-0.3,0.1-0.5,0.4-0.4,0.7c0.1,0.3,0.5,0.5,0.8,0.4l2.7-0.7l2.5,1.4l-2.5,1.4
		c-1-0.2-1.9-0.6-2.9-0.7c-0.3,0-0.5,0.2-0.6,0.5c0,0.3,0.2,0.6,0.4,0.6l1.6,0.4l-1.6,0.9c-0.3,0.2-0.4,0.5-0.2,0.8
		c0.2,0.3,0.5,0.4,0.8,0.2l1.6-0.9l-0.4,1.6c-0.1,0.3,0.1,0.6,0.4,0.7c0.3,0.1,0.6-0.1,0.7-0.4l0.7-2.7l2.4-1.4v2.8l-2,2
		c-0.2,0.2-0.2,0.6,0,0.8c0.2,0.2,0.6,0.2,0.8,0l1.1-1.1v1.9c0,0.3,0.3,0.6,0.6,0.6s0.6-0.3,0.6-0.6v-1.9l1.2,1.1
		c0.2,0.2,0.6,0.3,0.9,0c0.2-0.2,0.2-0.6,0-0.8l-2-2v-2.8l2.5,1.4l0.7,2.7c0.1,0.3,0.4,0.5,0.7,0.4c0.3-0.1,0.5-0.4,0.4-0.7
		l-0.4-1.6l1.6,0.9c0.3,0.2,0.6,0,0.8-0.2c0.2-0.3,0.1-0.6-0.2-0.8l-1.6-0.9l1.6-0.4c0.3-0.1,0.5-0.4,0.4-0.6c0-0.3-0.3-0.5-0.6-0.5
		c-0.9,0.2-1.9,0.5-2.9,0.7l-2.5-1.4l2.5-1.4l2.7,0.7c0.3,0.1,0.7-0.1,0.8-0.4C76.3,84.5,76.1,84.1,75.8,84.1z"/>
</g>
</svg>
