<?xml version="1.0" encoding="utf-8"?>
<!-- Generator: Adobe Illustrator 23.0.3, SVG Export Plug-In . SVG Version: 6.00 Build 0)  -->
<svg version="1.1" id="Livello_1" xmlns="http://www.w3.org/2000/svg" xmlns:xlink="http://www.w3.org/1999/xlink" x="0px" y="0px"
	 viewBox="0 0 100 100" style="enable-background:new 0 0 100 100;" xml:space="preserve">
<style type="text/css">
	.st0{fill:#4D4D4D;}
	.st1{fill:#E5B900;}
	.st2{fill:#EDC80F;}
	.st3{fill:#0071BC;}
</style>
<g>
	<g>
		<path class="st0" d="M84,20.6C81.7,7.2,70.4-1.2,56.3-1.2c-0.1,0-0.2,0-0.3,0c-8.5,0.1-16,3.9-21.2,9.9c-1.1-0.2-2.2-0.3-3.4-0.3
			c-8.8,0-16.1,7.4-18.3,15.5C5.8,24.2,0,33.2,0,40.6c0,7.6,6.2,13.8,13.7,13.8h6.5v-0.1h29.9v0.1H56h28c7.6,0,16-8.1,16-15.7
			C100,29.7,91.4,20.7,84,20.6z"/>
	</g>
	<g>
		<polygon class="st1" points="58.2,60.4 54.6,71.1 58.2,71.1 51.7,89.5 68.9,71.1 65,71.1 68.9,60.4 		"/>
	</g>
	<g>
		<polygon class="st2" points="20.2,54.2 20.2,54.3 33,54.3 28.1,69.2 33.9,69.2 25,97.1 50,69.2 44,69.2 49.4,54.3 50.1,54.3 
			50.1,54.2 		"/>
	</g>
	<g>
		<g>
			<g>
				<path class="st3" d="M18.7,70.9c0,0-0.1,0-0.1,0c-0.2-0.1-0.3-0.3-0.3-0.5l3.2-11.8c0.1-0.2,0.3-0.3,0.5-0.3
					c0.2,0.1,0.3,0.3,0.3,0.5l-3.2,11.8C19,70.8,18.9,70.9,18.7,70.9z"/>
			</g>
			<g>
				<path class="st3" d="M77.8,70.9c0,0-0.1,0-0.1,0c-0.2-0.1-0.3-0.3-0.3-0.5l3.2-11.8c0.1-0.2,0.3-0.3,0.5-0.3
					c0.2,0.1,0.3,0.3,0.3,0.5l-3.2,11.8C78.1,70.8,77.9,70.9,77.8,70.9z"/>
			</g>
		</g>
		<g>
			<path class="st3" d="M42.3,101.2c0,0-0.1,0-0.1,0c-0.2-0.1-0.3-0.3-0.3-0.5l3.2-11.8c0.1-0.2,0.3-0.3,0.5-0.3
				c0.2,0.1,0.3,0.3,0.3,0.5l-3.2,11.8C42.7,101.1,42.5,101.2,42.3,101.2z"/>
		</g>
		<g>
			<g>
				<path class="st3" d="M21.9,89.6c0,0-0.1,0-0.1,0c-0.2-0.1-0.3-0.3-0.3-0.5l3.2-11.8c0.1-0.2,0.3-0.3,0.5-0.3
					c0.2,0.1,0.3,0.3,0.3,0.5l-3.2,11.8C22.2,89.5,22,89.6,21.9,89.6z"/>
			</g>
			<g>
				<path class="st3" d="M67.1,89.6c0,0-0.1,0-0.1,0c-0.2-0.1-0.3-0.3-0.3-0.5L70,77.4c0.1-0.2,0.3-0.3,0.5-0.3
					c0.2,0.1,0.3,0.3,0.3,0.5l-3.2,11.8C67.5,89.5,67.3,89.6,67.1,89.6z"/>
			</g>
		</g>
	</g>
</g>
</svg>
