<?xml version="1.0" encoding="utf-8"?>
<!-- Generator: Adobe Illustrator 23.0.3, SVG Export Plug-In . SVG Version: 6.00 Build 0)  -->
<svg version="1.1" id="Livello_1" xmlns="http://www.w3.org/2000/svg" xmlns:xlink="http://www.w3.org/1999/xlink" x="0px" y="0px"
	 viewBox="0 0 100 100" style="enable-background:new 0 0 100 100;" xml:space="preserve">
<style type="text/css">
	.st0{opacity:0.65;}
	.st1{fill:#105C75;}
	.st2{fill:#C1272D;}
</style>
<g>
	<g class="st0">
		<path class="st1" d="M86.9,74.3V33.8c4-3.6,6.3-8.8,6.3-14.3C93.2,8.7,84.4,0,73.7,0C62.9,0,54.2,8.7,54.2,19.5
			c0,5.5,2.3,10.6,6.3,14.3v40.6h-7.2v5.3h0l16.7,16.7l3.7,3.7l3.7-3.7l16.7-16.7h0v-5.3H86.9z M81.6,31.2v48.4h0.1h4.9L73.7,92.5
			L60.8,79.6h4.9h0.1V31.2c-3.9-2.6-6.3-7-6.3-11.7c0-7.8,6.4-14.2,14.2-14.2c7.8,0,14.2,6.4,14.2,14.2
			C87.9,24.2,85.5,28.6,81.6,31.2z"/>
		<g>
			<polygon class="st1" points="74.3,20.5 75,19.4 74.3,18.3 72.9,18.3 72.3,19.4 73,20.5 			"/>
			<path class="st1" d="M68.4,29.6v27.9v0.8v13.5h10.5V54.5h-2.1v-2H79v-2.1h-5.1v-2H79v-2.1h-2.1v-2H79v-2.1h-5.1v-2H79v-2.1h-2.1
				v-2H79V34h-5.1v-2H79v-2.4c3.7-1.9,6.3-5.8,6.3-10.2c0-6.4-5.2-11.6-11.6-11.6c-6.4,0-11.6,5.2-11.6,11.6
				C62.1,23.9,64.7,27.7,68.4,29.6z M65.6,23l2.1-1.2l-1.3-0.7l0-0.9l0.7-0.4l2,1.2l1.4-0.9l-1.4-0.9l1.4-0.8l-1.4-0.8l-2,1.1
				l-0.6-0.5l0-0.8l1.3-0.7l-2-1.2l0-0.9l0.9-0.4l2,1.1l0-1.5l0.7-0.4L70,14l0,2.3l1.5,0.8l0-1.6l1.4,0.9l0-1.6l-2-1.1l0-0.9
				l0.7-0.3l1.3,0.8l0-2.4l0.8-0.5l0.8,0.5l0,2.4l1.3-0.7l0.7,0.4l0,0.8l-2,1.1l0,1.6l1.4-0.9l0,1.7l1.4-0.8l0-2.3l0.8-0.5l0.6,0.4
				l0,1.5l2.1-1.2l0.9,0.4l0,1L79.5,17l1.4,0.7l0,0.9L80.1,19l-2-1.2l-1.4,0.8l0,0l1.4,0.8l-1.4,0.8l1.4,0.8l2-1.2l0.7,0.4l0,0.9
				l-1.3,0.7l2.1,1.2l0,1l-0.8,0.4l-2.1-1.2l0,1.5l-0.6,0.4l-0.8-0.5l0-2.3l-1.4-0.8l0,1.6l-1.5-0.8l0,1.6l2,1.1l0,0.8l-0.7,0.4
				l-1.3-0.8l0,2.4l-0.8,0.5L72.9,28l0-2.4l-1.4,0.8l-0.7-0.5l0-0.8l2.1-1.2l0-1.6l-1.4,0.9l0-1.7L70,22.4l0,2.5l-0.7,0.3l-0.7-0.3
				l0-1.6l-2.2,1.2l-0.8-0.5L65.6,23z"/>
		</g>
	</g>
	<g>
		<g>
			<path class="st2" d="M13.1,25.7v40.6c-4,3.6-6.3,8.8-6.3,14.3c0,10.7,8.7,19.5,19.5,19.5c10.7,0,19.5-8.7,19.5-19.5
				c0-5.5-2.3-10.6-6.3-14.3V25.7h7.2v-5.3h0L30.1,3.7L26.3,0l-3.7,3.7L5.9,20.4h0v5.3H13.1z M18.4,68.8V20.4h-0.1h-4.9L26.3,7.5
				l12.9,12.9h-4.9h-0.1v48.4c3.9,2.6,6.3,7,6.3,11.7c0,7.8-6.4,14.2-14.2,14.2c-7.8,0-14.2-6.4-14.2-14.2
				C12.1,75.8,14.5,71.4,18.4,68.8z"/>
		</g>
		<g>
			<path class="st2" d="M21,70.4V68h5.1v-2H21v-2.1h2.1v-2H21v-2.1h5.1v-2H21v-2.1h2.1v-2H21v-2.1h5.1v-2H21v-2.1h2.1v-2h-2.1V28.2
				h10.5v13.5v0.8v27.9c3.7,1.9,6.3,5.8,6.3,10.2c0,6.4-5.2,11.6-11.6,11.6c-6.4,0-11.6-5.2-11.6-11.6C14.8,76.1,17.3,72.3,21,70.4z
				"/>
		</g>
	</g>
</g>
</svg>
