<?xml version="1.0" encoding="utf-8"?>
<!-- Generator: Adobe Illustrator 23.0.3, SVG Export Plug-In . SVG Version: 6.00 Build 0)  -->
<svg version="1.1" id="Livello_1" xmlns="http://www.w3.org/2000/svg" xmlns:xlink="http://www.w3.org/1999/xlink" x="0px" y="0px"
	 viewBox="0 0 100 100" style="enable-background:new 0 0 100 100;" xml:space="preserve">
<style type="text/css">
	.st0{fill:#3874AB;}
	.st1{fill:#9bb5df;}
	.st2{fill:#4D4D4D;}
</style>
<g>
	<g>
		<g>
			<path class="st0" d="M46.1,71.4c0,0-0.1,0-0.1,0c-0.2-0.1-0.3-0.3-0.3-0.5l2.2-8.2c0.1-0.2,0.3-0.3,0.5-0.3
				c0.2,0.1,0.3,0.3,0.3,0.5l-2.2,8.2C46.4,71.3,46.3,71.4,46.1,71.4z"/>
		</g>
		<g>
			<path class="st0" d="M33.7,71.4c0,0-0.1,0-0.1,0c-0.2-0.1-0.3-0.3-0.3-0.5l2.2-8.2c0.1-0.2,0.3-0.3,0.5-0.3
				c0.2,0.1,0.3,0.3,0.3,0.5L34,71.1C34,71.3,33.8,71.4,33.7,71.4z"/>
		</g>
		<g>
			<path class="st0" d="M21.2,71.4c0,0-0.1,0-0.1,0c-0.2-0.1-0.3-0.3-0.3-0.5l2.2-8.2c0.1-0.2,0.3-0.3,0.5-0.3
				c0.2,0.1,0.3,0.3,0.3,0.5l-2.2,8.2C21.6,71.3,21.4,71.4,21.2,71.4z"/>
		</g>
		<g>
			<path class="st0" d="M36.9,82.7c0,0-0.1,0-0.1,0c-0.2-0.1-0.3-0.3-0.3-0.5l2.2-8.2c0.1-0.2,0.3-0.3,0.5-0.3
				c0.2,0.1,0.3,0.3,0.3,0.5l-2.2,8.2C37.2,82.6,37,82.7,36.9,82.7z"/>
		</g>
		<g>
			<path class="st0" d="M24.4,82.7c0,0-0.1,0-0.1,0c-0.2-0.1-0.3-0.3-0.3-0.5l2.2-8.2c0.1-0.2,0.3-0.3,0.5-0.3
				c0.2,0.1,0.3,0.3,0.3,0.5l-2.2,8.2C24.7,82.6,24.6,82.7,24.4,82.7z"/>
		</g>
		<g>
			<path class="st0" d="M40.4,92.8c0,0-0.1,0-0.1,0c-0.2-0.1-0.3-0.3-0.3-0.5l2.2-8.2c0.1-0.2,0.3-0.3,0.5-0.3
				c0.2,0.1,0.3,0.3,0.3,0.5l-2.2,8.2C40.7,92.6,40.6,92.8,40.4,92.8z"/>
		</g>
		<g>
			<path class="st0" d="M27.9,92.8c0,0-0.1,0-0.1,0c-0.2-0.1-0.3-0.3-0.3-0.5l2.2-8.2c0.1-0.2,0.3-0.3,0.5-0.3
				c0.2,0.1,0.3,0.3,0.3,0.5l-2.2,8.2C28.3,92.6,28.1,92.8,27.9,92.8z"/>
		</g>
	</g>
	<g>
		<path class="st1" d="M64.8,61.7c-0.6,0-1.1,0.5-1.1,1.1v3.7l-2.2-2.2c-0.4-0.4-1.2-0.5-1.6,0c-0.4,0.4-0.5,1.2,0,1.6l3.9,3.8v5.6
			l-4.8-2.8l-1.4-5.2c-0.1-0.5-0.6-0.9-1.1-0.9c-0.7,0-1.2,0.6-1.1,1.3c0,0.1,0,0.1,0,0.2l0.8,3L52.9,69c-0.5-0.3-1.2-0.1-1.5,0.3
			c-0.3,0.6-0.1,1.3,0.4,1.6l3.2,1.8l-3.1,0.8c-0.6,0.2-1,0.8-0.8,1.4c0.2,0.6,0.8,1,1.4,0.8l5.2-1.4l4.8,2.8L57.8,80
			c-1.9-0.4-3.7-1.2-5.6-1.5c-0.6-0.1-1.2,0.4-1.2,1s0.4,1.2,1,1.2l3.1,0.8l-3.2,1.8c-0.5,0.3-0.7,1-0.4,1.5c0.3,0.5,1,0.7,1.5,0.4
			l3.2-1.8l-0.8,3.1c-0.2,0.6,0.2,1.2,0.8,1.4c0.6,0.2,1.2-0.2,1.4-0.8l1.4-5.2l4.8-2.8v5.6l-3.9,3.7c-0.5,0.5-0.5,1.2,0,1.7
			c0.5,0.4,1.2,0.4,1.7-0.1l2.2-2.2v3.7c0,0.6,0.5,1.1,1.1,1.1s1.1-0.5,1.1-1.1v-3.7l2.2,2.2c0.4,0.5,1.2,0.5,1.7,0.1
			c0.5-0.5,0.5-1.2,0-1.7l-3.9-3.8v-5.6l4.8,2.8l1.4,5.2c0.2,0.6,0.8,1,1.4,0.8c0.6-0.2,1-0.8,0.8-1.4l-0.9-3l3.2,1.8
			c0.5,0.3,1.2,0.1,1.5-0.4c0.3-0.5,0.1-1.2-0.4-1.5l-3.2-1.8l3.1-0.8c0.6-0.1,1-0.6,1-1.3s-0.6-1-1.3-1c-1.8,0.4-3.7,1-5.6,1.4
			l-4.8-2.8l4.8-2.8l5.3,1.4c0.6,0.2,1.2-0.2,1.4-0.8c0.2-0.6-0.2-1.2-0.8-1.4l-3.1-0.8L78,71c0.5-0.4,0.7-1.1,0.4-1.6
			c-0.2-0.5-0.9-0.6-1.5-0.3l-3.2,1.8l0.8-3c0.1-0.6-0.3-1.3-0.9-1.4c-0.1,0-0.1,0-0.2,0c-0.5,0-0.9,0.4-1,0.9l-1.4,5.2l-4.8,2.8
			v-5.6l3.9-3.8c0.5-0.5,0.5-1.2,0-1.7c-0.5-0.4-1.2-0.4-1.7,0.1l-2.2,2.2v-3.7c0-0.6-0.5-1.1-1.1-1.1L64.8,61.7z"/>
	</g>
	<g>
		<path class="st2" d="M84,28.9C81.7,15.6,70.4,7.2,56.3,7.2H56c-8.1,0.1-15.9,3.7-21.2,9.8c-1.1-0.2-2.2-0.3-3.4-0.3
			c-8.8,0-16.1,7.5-18.3,15.6C5.8,32.6,0,41.5,0,48.9c0,7.6,6.1,13.8,13.7,13.8c0,0,0,0,0,0H84c7.6,0,16-8.1,16-15.7
			C100,38.1,91.4,29.1,84,28.9z"/>
	</g>
</g>
</svg>
