<?xml version="1.0" encoding="utf-8"?>
<!-- Generator: Adobe Illustrator 23.0.3, SVG Export Plug-In . SVG Version: 6.00 Build 0)  -->
<svg version="1.1" id="Livello_1" xmlns="http://www.w3.org/2000/svg" xmlns:xlink="http://www.w3.org/1999/xlink" x="0px" y="0px"
	 viewBox="0 0 100 100" style="enable-background:new 0 0 100 100;" xml:space="preserve">
<style type="text/css">
	.st0{fill:#b7e6ff;}
	.st1{fill:#2574A9;}
	.st2{fill:#26A84E;}
</style>
<g>
	<path class="st0" d="M78.7,78.3L18.3,18.7c-0.6-0.5-1.4-0.5-2,0c-0.3,0.3-0.4,0.7-0.4,1l0,0l-1,76.4c0,2.1,1.7,3.9,3.8,3.9h78.7
		l0,0c0.3,0,0.6-0.1,0.9-0.4c0.5-0.6,0.5-1.4,0-2L82.4,82L78.7,78.3z"/>
	<path class="st1" d="M82.4,82c0.3,0,0.7,0,1,0c8.6,0,15.7-7,15.7-15.7c0-5.1-2.5-9.9-6.6-12.8c1.7-2.2,2.6-4.9,2.6-7.8
		c0-7.1-5.8-12.8-12.8-12.8c-3.3,0-6.4,1.3-8.8,3.5c-2.5-1.2-5.3-1.8-8-1.8c-2.4,0-4.8,0.5-7,1.3l-36-35.6c-0.6-0.5-1.4-0.5-2,0
		c-0.5,0.6-0.5,1.4,0,2l35.3,34.9c-0.8,0.5-1.7,1.1-2.4,1.7c-0.6,0.5-0.7,1.4-0.2,2c0.5,0.6,1.4,0.7,2,0.2c2.9-2.4,6.5-3.7,10.2-3.7
		c2.7,0,5.3,0.7,7.6,1.9c0.6,0.3,1.3,0.2,1.7-0.3c1.9-2.1,4.6-3.4,7.5-3.4c5.5,0,10,4.5,10,10c0,2.3-0.8,4.5-2.2,6.3
		c-1.6-0.9-4.7-2.1-9.3-1.6c-1.3-3.7-4.8-6.3-8.9-6.3c-0.8,0-1.4,0.6-1.4,1.4c0,0.8,0.6,1.4,1.4,1.4c3.6,0,6.6,3,6.6,6.6
		c0,2.9-1.9,5.5-4.7,6.3c-0.7,0.2-1.2,1-0.9,1.8c0.2,0.6,0.7,1,1.3,1c0.1,0,0.3,0,0.4-0.1c4-1.2,6.7-4.8,6.7-9c0-0.1,0-0.2,0-0.3
		c3.3-0.3,5.6,0.5,7,1.1c0.8,0.4,2,1.1,2.2,1.3c3.6,2.4,5.8,6.4,5.8,10.8c0,7.1-5.8,12.9-12.9,12.9c-1.6,0-3.2-0.3-4.8-0.9L82.4,82z
		"/>
	<path class="st2" d="M38.7,58.6c0.5,0.6,1.4,0.7,2,0.2c0.6-0.5,0.7-1.4,0.2-2l-5-6.2c-0.3-0.3-0.7-0.5-1.1-0.5
		c-0.4,0-0.8,0.2-1.1,0.5l-5,6.2c-0.5,0.6-0.4,1.5,0.2,2c0.3,0.2,0.6,0.3,0.9,0.3c0.4,0,0.8-0.2,1.1-0.5l2.5-3.1v2.6l-4.7,5.8
		c-0.5,0.6-0.4,1.5,0.2,2c0.3,0.2,0.6,0.3,0.9,0.3c0.4,0,0.8-0.2,1.1-0.5l2.5-3.1v2.6L28.7,71c-0.5,0.6-0.4,1.5,0.2,2
		c0.3,0.2,0.6,0.3,0.9,0.3c0.4,0,0.8-0.2,1.1-0.5l2.5-3.1v6.8c0,0.8,0.6,1.4,1.4,1.4c0.8,0,1.4-0.6,1.4-1.4v-6.8l2.5,3.1
		c0.5,0.6,1.4,0.7,2,0.2c0.6-0.5,0.7-1.4,0.2-2l-4.7-5.8v-2.6l2.5,3.1c0.5,0.6,1.4,0.7,2,0.2c0.6-0.5,0.7-1.4,0.2-2l-4.7-5.8v-2.6
		L38.7,58.6z"/>
	<path class="st2" d="M59.8,71.5c0.3,0.3,0.7,0.5,1.1,0.5c0.3,0,0.6-0.1,0.9-0.3c0.6-0.5,0.7-1.4,0.2-2l-5-6.2
		c-0.3-0.3-0.7-0.5-1.1-0.5s-0.8,0.2-1.1,0.5l-5,6.2c-0.5,0.6-0.4,1.5,0.2,2c0.6,0.5,1.5,0.4,2-0.2l2.5-3.1V71l-4.7,5.8
		c-0.5,0.6-0.4,1.5,0.2,2c0.6,0.5,1.5,0.4,2-0.2l2.5-3.1v2.6l-4.7,5.8c-0.5,0.6-0.4,1.5,0.2,2c0.6,0.5,1.5,0.4,2-0.2l2.5-3.1v6.8
		c0,0.8,0.6,1.4,1.4,1.4s1.4-0.6,1.4-1.4v-6.8l2.5,3.1c0.3,0.3,0.7,0.5,1.1,0.5c0.3,0,0.6-0.1,0.9-0.3c0.6-0.5,0.7-1.4,0.2-2
		l-4.7-5.8v-2.6l2.5,3.1c0.3,0.3,0.7,0.5,1.1,0.5c0.3,0,0.6-0.1,0.9-0.3c0.6-0.5,0.7-1.4,0.2-2L57.3,71v-2.6L59.8,71.5z"/>
</g>
</svg>
