<?xml version="1.0" encoding="utf-8"?>
<!-- Generator: Adobe Illustrator 23.0.3, SVG Export Plug-In . SVG Version: 6.00 Build 0)  -->
<svg version="1.1" id="Livello_1" xmlns="http://www.w3.org/2000/svg" xmlns:xlink="http://www.w3.org/1999/xlink" x="0px" y="0px"
	 viewBox="0 0 100 100" style="enable-background:new 0 0 100 100;" xml:space="preserve">
<style type="text/css">
	.st0{fill:none;}
	.st1{fill:#8D7A59;}
	.st2{fill:#E54838;}
	.st3{fill:#E5D2C3;}
	.st4{fill:#F4DED0;}
	.st5{fill:#9B3E3E;}
	.st6{fill:#CCB2A6;}
	.st7{fill:#6C5947;}
</style>
<g>
	<path class="st0" d="M60.1,46.8L59,47C59.3,47,59.7,46.9,60.1,46.8z"/>
	<path class="st0" d="M80.5,43.9L79.3,44C79.7,44,80.1,44,80.5,43.9z"/>
	<path class="st0" d="M18.8,28.3c0-0.9-0.1-1.7-0.1-2.6c0,0,0,0,0,0c0,0,0,0,0,0c0,0,0,0,0,0c0-0.9,0-1.8,0.1-2.7c0-0.2,0-0.5,0-0.7
		c0-0.5,0.1-1,0.1-1.5c0.2-2.1,0.5-4.2,1-6.1L7.5,24.6c0,0.2,0.1,0.4,0.1,0.7V26l12.3,10.6c-0.5-2-0.8-4.2-1-6.5
		c0-0.3-0.1-0.6-0.1-0.9C18.8,28.9,18.8,28.6,18.8,28.3z"/>
	<path class="st1" d="M20,36.7L7.6,26c0,0-0.1-1.2-0.1-1.4l12.4-9.8c1.1,0.5,3-7.6,3-7.6L5,21.6c-0.9-0.3,2.7,9.5,2.7,9.5L23,44.4"
		/>
	<path class="st2" d="M31.9,50.9c0.5,0,0.9-0.1,1.4-0.2l18.2-2.6c4.7-1.3,8.4-10.8,8.4-22.4c0-11.3-3.5-20.7-8.1-22.3L33.3,0.7
		c-0.4-0.1-0.9-0.2-1.3-0.2l-0.2,0c7,0.2,12.7,11.4,12.7,25.2c0,13.9-5.7,25.2-12.8,25.2L31.9,50.9z"/>
	<path class="st3" d="M30.7,0.5c-0.1,0-0.3,0.1-0.4,0.1c0.2,0,0.4-0.1,0.6-0.1L30.7,0.5z"/>
	<path class="st2" d="M91.5,9.1L91.5,9.1L81.2,7.6c4.2,1.8,7.3,9.2,7.3,18c0,9.4-3.5,17.1-8,18.2l10.7-1.6c5,0,8.8-7.1,8.8-16.6
		C100,16.3,96.2,9.1,91.5,9.1z"/>
	<path class="st4" d="M81.2,7.6l-9.4-1.4c4.7,1.2,8.3,9.5,8.3,19.4c0,9.9-3.6,18.2-8.3,19.4l7.4-1.1h0h0l1.2-0.2
		c4.5-1.2,8-8.9,8-18.2C88.5,16.8,85.4,9.4,81.2,7.6z"/>
	<path class="st2" d="M80.2,25.7c0-9.9-3.6-18.2-8.3-19.4L60.1,4.6c4.6,1.2,8.2,10.2,8.2,21.1c0,10.9-3.6,19.9-8.2,21.1l11.8-1.7
		C76.5,43.9,80.2,35.6,80.2,25.7z"/>
	<path class="st4" d="M68.2,25.7c0-10.9-3.6-19.9-8.2-21.1l-5.3-0.8c-0.4-0.1-0.7-0.1-1.1-0.2l-1.8-0.3c4.6,1.6,8.1,11,8.1,22.3
		c0,11.6-3.7,21.1-8.4,22.4l2-0.3c0.5,0,0.9-0.1,1.4-0.2L59,47c0,0,0,0,0,0c0,0,0,0,0,0l1.1-0.2C64.7,45.6,68.2,36.6,68.2,25.7z"/>
	<path class="st5" d="M42.1,11.2C39.8,4.8,36,0.6,31.7,0.5l-0.8,0c-0.2,0-0.4,0.1-0.6,0.1c0,0-0.1,0-0.1,0C24.6,1.8,20,10.1,19,20.9
		c0,0.5-0.1,1-0.1,1.5c0,0.2,0,0.5,0,0.7c0,0.9-0.1,1.8-0.1,2.7c0,0,0,0,0,0c0,0.9,0,1.8,0.1,2.6c0,0.3,0,0.6,0.1,0.9
		c0,0.3,0,0.6,0.1,0.9c1.1,11.8,6.3,20.8,12.6,20.8c4.3,0,8.1-4.2,10.5-10.6c-1.4-3.9-2.3-9-2.3-14.5C39.7,20.2,40.6,15.1,42.1,11.2
		z"/>
	<path class="st6" d="M42.1,11.2c-1.4,3.9-2.3,9-2.3,14.5c0,5.5,0.9,10.6,2.3,14.5c1.5-4.1,2.4-9.1,2.4-14.5
		C44.4,20.3,43.5,15.3,42.1,11.2z"/>
	<g>
		<path class="st7" d="M3.8,99.5c-2.1,0-3.8-1.7-3.8-3.8V25.3c0-2.1,1.7-3.8,3.8-3.8s3.8,1.7,3.8,3.8v70.4
			C7.6,97.8,5.9,99.5,3.8,99.5z"/>
	</g>
</g>
</svg>
