<?xml version="1.0" encoding="utf-8"?>
<!-- Generator: Adobe Illustrator 23.0.3, SVG Export Plug-In . SVG Version: 6.00 Build 0)  -->
<svg version="1.1" id="Livello_1" xmlns="http://www.w3.org/2000/svg" xmlns:xlink="http://www.w3.org/1999/xlink" x="0px" y="0px"
	 viewBox="0 0 100 100" style="enable-background:new 0 0 100 100;" xml:space="preserve">
<style type="text/css">
	.st0{fill:#61A3C9;}
	.st1{fill:#4D484A;}
	.st2{fill:#D4B870;}
</style>
<g>
	<g>
		<path class="st0" d="M54.2,52.5c0,0.4-0.4,0.6-0.9,0.6c-1.3,0-1.9,0.6-2.9,1.6c-0.9,0.9-2.1,2.1-4.4,2.1c-2.3,0-3.4-1.2-4.4-2.1
			c-1-1-1.6-1.6-2.9-1.6c-1.3,0-1.9,0.6-2.9,1.6c-0.9,0.9-2.1,2.1-4.4,2.1s-3.4-1.2-4.4-2.1c-1-1-1.6-1.6-2.9-1.6s-1.9,0.6-2.9,1.6
			c-0.9,0.9-2.1,2.1-4.4,2.1s-3.4-1.2-4.4-2.1c-1-1-1.6-1.6-2.9-1.6c-1.3,0-1.9,0.6-2.9,1.6c-0.9,0.9-2.1,2.1-4.4,2.1
			c-0.5,0-0.9-0.3-0.9-0.6c0-0.4,0.4-0.6,0.9-0.6c1.3,0,1.9-0.6,2.9-1.6c0.9-0.9,2.1-2.1,4.4-2.1c2.3,0,3.4,1.2,4.4,2.1
			c1,1,1.6,1.6,2.9,1.6s1.9-0.6,2.9-1.6c0.9-0.9,2.1-2.1,4.4-2.1c2.3,0,3.4,1.2,4.4,2.1c1,1,1.6,1.6,2.9,1.6c1.3,0,1.9-0.6,2.9-1.6
			c0.9-0.9,2.1-2.1,4.4-2.1c2.3,0,3.4,1.2,4.4,2.1c1,1,1.6,1.6,2.9,1.6c1.3,0,1.9-0.6,2.9-1.6c0.9-0.9,2.1-2.1,4.4-2.1
			C53.8,51.9,54.2,52.2,54.2,52.5z"/>
	</g>
	<g>
		<path class="st0" d="M69,54c-0.1,0-0.2,0-0.3-0.1l-8.1-3.7c-0.5-0.2-12.3-5.2-12.4-11.4c0-2,0.6-3.5,1.9-4.5
			c1.4-1.1,3.4-1.1,4.9-0.9c-1-0.9-2.6-1.9-5.4-1.7c-5,0.3-7.4,4.6-9.3,9.1c-0.5,1.3-1.4,2.8-2.7,4.3c-1,1.2-2.4,1.9-4,2
			c-1.5,0.1-3-0.5-4.1-1.5c-1.4-1.4-2.2-2.8-2.2-4.2c0-1.6,0.5-2.8,1.5-3.5c0.9-0.7,2.2-0.8,3.2-0.8c-0.7-0.5-1.9-1-3.5-0.9
			c-3.7,0.2-5.5,3.4-6.9,6.8c-0.3,0.7-0.7,1.4-1.2,2.1c-1.1,1.6-2.9,2.5-4.9,2.4c-1.9-0.1-3.5-1-4.4-2.6c-0.4-0.7-0.6-1.4-0.6-2
			c0-1.4,0.4-2.4,1.3-3c0.6-0.5,1.4-0.6,2.1-0.7c-0.5-0.3-1.3-0.4-2.2-0.4c-2.9,0.2-4.3,2.7-5.4,5.4c-1.2,2.9-4.7,5.7-4.9,5.8
			c-0.3,0.3-0.8,0.2-1.1-0.1S0,49.2,0.3,48.9c0,0,3.3-2.6,4.4-5.1c0.8-2,2.5-6.1,6.8-6.4c4-0.2,5.2,2.6,5.2,2.8
			c0.1,0.3,0,0.6-0.2,0.8c-0.2,0.2-0.5,0.3-0.8,0.2c-0.6-0.2-2.2-0.5-3.1,0.1C12.2,41.6,12,42.1,12,43c0,0.4,0.1,0.8,0.4,1.2
			c0.7,1.1,1.8,1.8,3.1,1.8c1.4,0,2.7-0.6,3.5-1.8c0.4-0.6,0.8-1.2,1-1.8c1-2.4,3.1-7.5,8.3-7.8c4.9-0.3,6.3,3.2,6.3,3.3
			c0.1,0.3,0,0.6-0.2,0.8C34.3,39,34,39.1,33.7,39c-0.7-0.2-2.9-0.7-4,0.1c-0.6,0.4-0.9,1.2-0.9,2.3c0,1,0.6,2,1.7,3.1
			c0.8,0.8,1.8,1.2,2.9,1.1c1.1-0.1,2.2-0.6,2.9-1.4c1.1-1.4,2-2.7,2.4-3.9c1.3-3.1,4-9.7,10.7-10.1c6.2-0.4,8,4,8.1,4.2
			c0.1,0.3,0,0.6-0.2,0.8c-0.2,0.2-0.5,0.3-0.8,0.2c0,0-3.6-1.2-5.5,0.2c-0.8,0.6-1.2,1.7-1.2,3.2c0.1,4.3,8.3,8.7,11.5,10l8.1,3.7
			c0.4,0.2,0.6,0.6,0.4,1C69.6,53.9,69.3,54,69,54z"/>
	</g>
	<g id="XMLID_32_">
		<path class="st1" d="M72.1,35.2c0-1.3,1.6-2.3,3.6-2.3s3.6,1,3.6,2.3v14.5h11.3V25.3l4.8,4.8l2.3-2.3L75.9,6L54,27.8l2.3,2.3
			l4.8-4.8v24.4h10.9V35.2z"/>
	</g>
	<g id="XMLID_31_">
		<path class="st2" d="M51.3,52.2c-0.1,0-3.4,8.6-6.5,8.6H3C9.8,80.1,28.4,94,50.2,94h0c25.8,0,47-19.4,49.8-44.2h-9.3H79.4h-7.3
			H61.1H56C54,49.7,52.3,50.7,51.3,52.2z"/>
	</g>
</g>
</svg>
